{
 "cells": [
  {
   "cell_type": "markdown",
   "id": "5dcf91b1-ebaa-4d58-b43e-24ac6a42528b",
   "metadata": {},
   "source": [
    "---\n",
    "title: \"Auto Clipping\"\n",
    "author: \"Ali Zaidi\"\n",
    "date: \"2025-11-13\"\n",
    "categories: [Data Engineering]\n",
    "description: \"End to end clipping and saving of multiswing videos to their component clips\"\n",
    "format:\n",
    "  html:\n",
    "    code-fold: true\n",
    "jupyter: python3\n",
    "---"
   ]
  },
  {
   "cell_type": "markdown",
   "id": "354c2172-5c3c-4f15-8c55-ed62b3abe1ee",
   "metadata": {},
   "source": [
    "## Now that we have some functionality to find each swing in the video, lets clip a longer video\n",
    "\n",
    "### To develop this functionality, we want to utilize:\n",
    "    1) Our auto detection functions from the previous notebook to find each swing\n",
    "    2) Core conditional logic to save and store these individual clips for future use\n",
    "\n",
    "### With this in place, we can generate swing datasets efficiently for modeling + our code should be modular to make tweaks"
   ]
  },
  {
   "cell_type": "code",
   "execution_count": 1,
   "id": "ee4f1ae9-e374-4f3d-870c-6c733016c73a",
   "metadata": {},
   "outputs": [],
   "source": [
    "#| include: false\n",
    "from fastai.vision.all import *\n",
    "from swing_detect import *\n",
    "from swing_data import *\n",
    "from video_utils import *\n",
    "from labeler import *"
   ]
  },
  {
   "cell_type": "code",
   "execution_count": 2,
   "id": "4b62d660-87ef-4bb7-aadd-e4a21396fcc8",
   "metadata": {},
   "outputs": [],
   "source": [
    "#| include: false\n",
    "base_path = '../../../data/full_videos'\n",
    "swing_days = ['jun8', 'aug9', 'sep14']\n",
    "files = get_files(f'{base_path}/{swing_days[-1]}', extensions='.MOV')"
   ]
  },
  {
   "cell_type": "code",
   "execution_count": 3,
   "id": "8b252cae",
   "metadata": {},
   "outputs": [
    {
     "data": {
      "text/plain": [
       "Path('../../../data/full_videos/sep14')"
      ]
     },
     "execution_count": 3,
     "metadata": {},
     "output_type": "execute_result"
    }
   ],
   "source": [
    "parent_dir = files[0].parent\n",
    "parent_dir"
   ]
  },
  {
   "cell_type": "code",
   "execution_count": 4,
   "id": "30c0005b-e043-4f73-a193-0c43d069be6f",
   "metadata": {},
   "outputs": [
    {
     "name": "stderr",
     "output_type": "stream",
     "text": [
      "100%|█████████████████████████████████████████████████████████████████████████████| 250/250 [00:00<00:00, 350.69it/s]\n"
     ]
    },
    {
     "name": "stdout",
     "output_type": "stream",
     "text": [
      "The video IMG_1090.MOV is in numpy array with shape: (250, 256, 256, 3)\n"
     ]
    }
   ],
   "source": [
    "#| code-fold: true\n",
    "#| echo: false\n",
    "fname = files[0].name.split('.')[0]\n",
    "frames, fps = get_frames(files[0], \n",
    "                         per_second=False, # only grab every fps frame\n",
    "                         #start_idx=600, # start 10 seconds in\n",
    "                         #start_idx=1200, # start 20 seconds in\n",
    "#                         num_frames=1500, # only pull down 25 seconds of video\n",
    "                         #num_frames=None, # Pulls down all of the frames of video\n",
    "                         num_frames=250, # only pull down 4ish seconds of video)\n",
    "                         resize_dim=(256,256),\n",
    "                         show_progress=True\n",
    "                        )\n",
    "save_frames(frames=frames, fps=fps, \n",
    "            parent_dir=f'{parent_dir}/{fname}',\n",
    "            output_filename='full_clip.mp4')\n",
    "print(f'The video {files[0].name} is in numpy array with shape: {frames.shape}')"
   ]
  },
  {
   "cell_type": "code",
   "execution_count": 5,
   "id": "04f591e5-d487-455f-b039-be74d7ad5b85",
   "metadata": {
    "scrolled": true
   },
   "outputs": [
    {
     "name": "stdout",
     "output_type": "stream",
     "text": [
      "Loads checkpoint by http backend from path: https://download.openmmlab.com/mmpose/v1/body_2d_keypoint/topdown_heatmap/coco/td-hm_ViTPose-huge_8xb64-210e_coco-256x192-e32adcd4_20230314.pth\n",
      "The model and loaded state dict do not match exactly\n",
      "\n",
      "unexpected key in source state_dict: backbone.cls_token\n",
      "\n",
      "11/14 16:38:25 - mmengine - \u001b[5m\u001b[4m\u001b[33mWARNING\u001b[0m - Failed to search registry with scope \"mmpose\" in the \"function\" registry tree. As a workaround, the current \"function\" registry in \"mmengine\" is used to build instance. This may cause unexpected failure when running the built modules. Please check whether \"mmpose\" is a correct scope, or whether the registry is initialized.\n"
     ]
    },
    {
     "name": "stderr",
     "output_type": "stream",
     "text": [
      "/home/azaidi/anaconda3/envs/fastdl/lib/python3.10/importlib/__init__.py:169: UserWarning: pkg_resources is deprecated as an API. See https://setuptools.pypa.io/en/latest/pkg_resources.html. The pkg_resources package is slated for removal as early as 2025-11-30. Refrain from using this package or pin to Setuptools<81.\n",
      "  _bootstrap._exec(spec, module)\n"
     ]
    },
    {
     "name": "stdout",
     "output_type": "stream",
     "text": [
      "Loads checkpoint by http backend from path: https://download.openmmlab.com/mmpose/v1/projects/rtmposev1/rtmdet_m_8xb32-100e_coco-obj365-person-235e8209.pth\n",
      "11/14 16:38:26 - mmengine - \u001b[5m\u001b[4m\u001b[33mWARNING\u001b[0m - Failed to search registry with scope \"mmdet\" in the \"function\" registry tree. As a workaround, the current \"function\" registry in \"mmengine\" is used to build instance. This may cause unexpected failure when running the built modules. Please check whether \"mmdet\" is a correct scope, or whether the registry is initialized.\n"
     ]
    },
    {
     "name": "stderr",
     "output_type": "stream",
     "text": [
      "0it [00:00, ?it/s]/home/azaidi/Desktop/golf/tools/mmdetection/mmdet/models/layers/se_layer.py:158: FutureWarning: `torch.cuda.amp.autocast(args...)` is deprecated. Please use `torch.amp.autocast('cuda', args...)` instead.\n",
      "  with torch.cuda.amp.autocast(enabled=False):\n",
      "/home/azaidi/Desktop/golf/tools/mmdetection/mmdet/models/backbones/csp_darknet.py:118: FutureWarning: `torch.cuda.amp.autocast(args...)` is deprecated. Please use `torch.amp.autocast('cuda', args...)` instead.\n",
      "  with torch.cuda.amp.autocast(enabled=False):\n",
      "/home/azaidi/anaconda3/envs/fastdl/lib/python3.10/site-packages/torch/functional.py:554: UserWarning: torch.meshgrid: in an upcoming release, it will be required to pass the indexing argument. (Triggered internally at /pytorch/aten/src/ATen/native/TensorShape.cpp:4322.)\n",
      "  return _VF.meshgrid(tensors, **kwargs)  # type: ignore[attr-defined]\n",
      "249it [00:14, 17.77it/s]"
     ]
    },
    {
     "name": "stdout",
     "output_type": "stream",
     "text": [
      "11/14 16:38:40 - mmengine - \u001b[4m\u001b[37mINFO\u001b[0m - the output video has been saved at ../../../data/full_videos/sep14/IMG_1090/keypoints/full_clip.mp4\n"
     ]
    },
    {
     "name": "stderr",
     "output_type": "stream",
     "text": [
      "250it [00:14, 17.12it/s]\n"
     ]
    }
   ],
   "source": [
    "#| code-fold: true\n",
    "# 11:48 seconds for one video (3ish min) -- lets just run once so we don't have to keep dealing with this wait\n",
    "process_label_video(f'{parent_dir}/{fname}/full_clip.mp4', \n",
    "                                   out_dir=f'{parent_dir}/{fname}/keypoints')"
   ]
  },
  {
   "cell_type": "code",
   "execution_count": 4,
   "id": "1790f7fd-6207-4b61-ba51-98783bbefe83",
   "metadata": {},
   "outputs": [
    {
     "name": "stdout",
     "output_type": "stream",
     "text": [
      "the highest (first) indexes where both wrists are above elbow and shoulder are:\n",
      "[1750, 3273, 5298, 6901, 8773, 10945]\n",
      "the start end end indexes based on an increment of 90 is:\n",
      "[(1660, 1840), (3183, 3363), (5208, 5388), (6811, 6991), (8683, 8863), (10855, 11035)]\n",
      "Our final combined video has shape: (1080, 256, 256, 3)\n"
     ]
    }
   ],
   "source": [
    "#| code-fold: true\n",
    "kps = KpExtractor(f'keypoints/{fname}_full_clip.pkl').keypoint_data.kps\n",
    "higher_idxs = find_all_higher_wrist_idxs(kps, conf_threshold=0.7)\n",
    "frame_increment = 90 # add 90 frames before and after our first frame with both hands above in backswing\"\n",
    "highest_idxs = find_each_first_higher_wrist(higher_idxs, skip_frames=900) # 900 frames is 15 seconds\n",
    "all_idx_bounds = get_all_idx_bounds(highest_idxs, frame_increment=frame_increment)\n",
    "final_frames = np.vstack([frames[idxs[0]: idxs[1]] for idxs in all_idx_bounds])\n",
    "print(f'the highest (first) indexes where both wrists are above elbow and shoulder are:\\n{highest_idxs}')\n",
    "print(f'the start end end indexes based on an increment of {frame_increment} is:\\n{all_idx_bounds}')\n",
    "print(f'Our final combined video has shape: {final_frames.shape}')"
   ]
  },
  {
   "cell_type": "code",
   "execution_count": 6,
   "id": "a7432318-18a9-4fef-b321-8152cffd01fc",
   "metadata": {},
   "outputs": [],
   "source": [
    "#| echo: false\n",
    "save_frames(fname='final_frames.mp4', frames=final_frames)"
   ]
  },
  {
   "cell_type": "markdown",
   "id": "a6a63c70-c18f-47a0-af52-45055b1e6082",
   "metadata": {},
   "source": [
    "### Each swing isolated, with about 1.5 seconds before and after the first point when the hands become visible over the shoulders in the backswing\n",
    "\n",
    "{{< video final_frames.mp4 width=\"400\" height=\"300\" >}}\n",
    "\n",
    " - We can extend the number of frames to 120 (2 seconds) before and after if we want"
   ]
  },
  {
   "cell_type": "code",
   "execution_count": 10,
   "id": "3da358a6-9bc1-4659-8e26-be6aad334bf9",
   "metadata": {},
   "outputs": [
    {
     "name": "stdout",
     "output_type": "stream",
     "text": [
      "We have 6 total swings from our original video IMG_1090\n"
     ]
    }
   ],
   "source": [
    "#| echo: false\n",
    "print(f'We have {len(all_idx_bounds)} total swings from our original video {fname}')"
   ]
  },
  {
   "cell_type": "markdown",
   "id": "852ff336-8fc9-43dd-bd45-f1a4a86aaad8",
   "metadata": {},
   "source": [
    "### Some functions to walk through generated keypoints to find all swing start and end indexes\n",
    "- "
   ]
  },
  {
   "cell_type": "code",
   "execution_count": 18,
   "id": "5e745ac6-17fb-4b52-9926-76f7b8937787",
   "metadata": {},
   "outputs": [],
   "source": [
    "#| code-fold: true\n",
    "def save_idx_df(fname, all_idx_bounds, out_dir):\n",
    "    start_idxs = [idxs[0] for idxs in all_idx_bounds]\n",
    "    end_idxs = [idxs[1] for idxs in all_idx_bounds]\n",
    "    swing_idxs = [x for x in range(len(all_idx_bounds))]\n",
    "    df = pd.DataFrame([swing_idxs, start_idxs, end_idxs], \n",
    "                 index=['swing_idx', 'start_idx', 'end_idx']).T\n",
    "    df.to_csv(f'{out_dir}/{fname}.csv', index=False)\n",
    "    return df"
   ]
  },
  {
   "cell_type": "code",
   "execution_count": 17,
   "id": "8198785a-116f-4c3a-b5c1-cffc72926a4a",
   "metadata": {},
   "outputs": [],
   "source": [
    "#| code-fold: true\n",
    "def get_swing_idx_df(kps_fpath,\n",
    "                     fname,\n",
    "                     out_dir,\n",
    "                     conf_threshold=0.7, \n",
    "                     frame_increment=90, # add 1.5 seconds before and the found idx\n",
    "                     skip_frames=900, # 900 frames is 15 seconds\n",
    "                     # ^ skips frames between swings\n",
    "                     ):\n",
    "    kps = KpExtractor(kps_fpath).keypoint_data.kps\n",
    "    higher_idxs = find_all_higher_wrist_idxs(kps, conf_threshold=conf_threshold)\n",
    "    highest_idxs = find_each_first_higher_wrist(higher_idxs, skip_frames=skip_frames) # 900 frames is 15 seconds\n",
    "    all_idx_bounds = get_all_idx_bounds(highest_idxs, frame_increment=frame_increment)\n",
    "    df = save_idx_df(fname, all_idx_bounds, out_dir)\n",
    "    return df"
   ]
  },
  {
   "cell_type": "code",
   "execution_count": 21,
   "id": "93b00f1e-d1e0-4962-a788-4c659ec0a05b",
   "metadata": {},
   "outputs": [],
   "source": [
    "#| code-fold: true\n",
    "def ensure_out_dir(out_dir_fpath):\n",
    "    if not os.path.isdir(out_dir_fpath):\n",
    "        os.makedirs(out_dir_fpath)\n",
    "\n",
    "def find_each_swing(video_path,\n",
    "                    per_second=False, # only grab every fps frame\n",
    "                    num_frames=None, #1500, # Pulls down all of the frames of video\n",
    "                    start_idx=None, #600, # None starts from 0\n",
    "                    resize_dim=(256,256),\n",
    "                    show_progress=True,\n",
    "                    model_type='vit', \n",
    "                    #out_dir='testing'\n",
    "                   ):\n",
    "    parent_dir = video_path.parent\n",
    "    fname = video_path.name.split('.')[0]\n",
    "    out_dir = f'{parent_dir}/{fname}'\n",
    "    ensure_out_dir(out_dir)                        \n",
    "    fname = video_path.name.split('.')[0]\n",
    "    frames, fps = get_frames(video_path,\n",
    "                             start_idx=start_idx,\n",
    "                             per_second=per_second, # only grab every fps frame\n",
    "                             num_frames=num_frames,#None, # Pulls down all of the frames of video\n",
    "                             resize_dim=resize_dim,\n",
    "                             show_progress=show_progress,\n",
    "                            )\n",
    "    output_filename = 'full_video.mp4'\n",
    "    out_fpath = f'{out_dir}/{output_filename}'\n",
    "    kp_fpath = f'{out_dir}/keypoints/{output_filename.split(\".\")[0]}.pkl'\n",
    "    \n",
    "    save_frames(frames=frames, fps=fps, \n",
    "            parent_dir=f'{parent_dir}/{fname}',\n",
    "            output_filename=output_filename)\n",
    "    #save_frames(frames=frames, fps=fps, fname=out_fpath)\n",
    "                       \n",
    "    process_label_video(out_fpath, out_dir=f'{out_dir}/keypoints')\n",
    "    df = get_swing_idx_df(kps_fpath=kp_fpath, fname=fname, out_dir=out_dir)\n",
    "    return df"
   ]
  },
  {
   "cell_type": "code",
   "execution_count": 22,
   "id": "f56aa94c-2083-4d71-9058-31b9d1603a97",
   "metadata": {
    "scrolled": true
   },
   "outputs": [
    {
     "name": "stderr",
     "output_type": "stream",
     "text": [
      "100%|███████████████████████████████████████████████████████████████████████████| 1500/1500 [00:04<00:00, 368.81it/s]\n"
     ]
    },
    {
     "name": "stdout",
     "output_type": "stream",
     "text": [
      "Loads checkpoint by http backend from path: https://download.openmmlab.com/mmpose/v1/body_2d_keypoint/topdown_heatmap/coco/td-hm_ViTPose-huge_8xb64-210e_coco-256x192-e32adcd4_20230314.pth\n",
      "The model and loaded state dict do not match exactly\n",
      "\n",
      "unexpected key in source state_dict: backbone.cls_token\n",
      "\n"
     ]
    },
    {
     "name": "stderr",
     "output_type": "stream",
     "text": [
      "/home/azaidi/anaconda3/envs/fastdl/lib/python3.10/importlib/__init__.py:169: UserWarning: pkg_resources is deprecated as an API. See https://setuptools.pypa.io/en/latest/pkg_resources.html. The pkg_resources package is slated for removal as early as 2025-11-30. Refrain from using this package or pin to Setuptools<81.\n",
      "  _bootstrap._exec(spec, module)\n"
     ]
    },
    {
     "name": "stdout",
     "output_type": "stream",
     "text": [
      "Loads checkpoint by http backend from path: https://download.openmmlab.com/mmpose/v1/projects/rtmposev1/rtmdet_m_8xb32-100e_coco-obj365-person-235e8209.pth\n"
     ]
    },
    {
     "name": "stderr",
     "output_type": "stream",
     "text": [
      "0it [00:00, ?it/s]/home/azaidi/Desktop/golf/tools/mmdetection/mmdet/models/layers/se_layer.py:158: FutureWarning: `torch.cuda.amp.autocast(args...)` is deprecated. Please use `torch.amp.autocast('cuda', args...)` instead.\n",
      "  with torch.cuda.amp.autocast(enabled=False):\n",
      "/home/azaidi/Desktop/golf/tools/mmdetection/mmdet/models/backbones/csp_darknet.py:118: FutureWarning: `torch.cuda.amp.autocast(args...)` is deprecated. Please use `torch.amp.autocast('cuda', args...)` instead.\n",
      "  with torch.cuda.amp.autocast(enabled=False):\n",
      "1500it [01:26, 17.36it/s]"
     ]
    },
    {
     "name": "stdout",
     "output_type": "stream",
     "text": [
      "11/14 16:58:47 - mmengine - \u001b[4m\u001b[37mINFO\u001b[0m - the output video has been saved at ../../../data/full_videos/sep14/IMG_1087/keypoints/full_video.mp4\n"
     ]
    },
    {
     "name": "stderr",
     "output_type": "stream",
     "text": [
      "1500it [01:26, 17.35it/s]\n"
     ]
    }
   ],
   "source": [
    "#fname = files[0].name.split('.')[0]\n",
    "df = find_each_swing(files[1], start_idx=None, num_frames=1500, )#out_dir=fname)"
   ]
  },
  {
   "cell_type": "markdown",
   "id": "172d029e-9524-4a80-ae86-2dd6bfcbd5d0",
   "metadata": {},
   "source": [
    "### Now everything is setup so we can extract all the swing frames with one command\n",
    "- the entire thing is parameterized in order to make small tweaks in how much data we index around the peak\n",
    "- It should make things easier/more reproducible\n",
    "    - Imagine a scenario where we decide to add some processing to videos before doing all of this, now that can be added with a function/line of code into this overall pipeline\n",
    "- Everything should remain organizable\n",
    "- Scaling things up to full frame shouldn't be a problem. we grab the frames and just clip with ffmpeg commands --> label them with the labeler. 7 swings is about 20-25 seconds. This can be done in parallel\n",
    "## Next up:\n",
    "- Process individual swings and apply the analysis framework\n",
    "    - Want to further build out functionality; add x-torque and others\n",
    "- Update plotting functionality to make it more modular and flexible\n",
    "* Ultimately want to be able to point to a folder of videos and output all the plots of interest "
   ]
  },
  {
   "cell_type": "code",
   "execution_count": 24,
   "id": "15567ea6-8c60-429c-b05c-ec8e0f9a281c",
   "metadata": {},
   "outputs": [
    {
     "data": {
      "text/html": [
       "<div>\n",
       "<style scoped>\n",
       "    .dataframe tbody tr th:only-of-type {\n",
       "        vertical-align: middle;\n",
       "    }\n",
       "\n",
       "    .dataframe tbody tr th {\n",
       "        vertical-align: top;\n",
       "    }\n",
       "\n",
       "    .dataframe thead th {\n",
       "        text-align: right;\n",
       "    }\n",
       "</style>\n",
       "<table border=\"1\" class=\"dataframe\">\n",
       "  <thead>\n",
       "    <tr style=\"text-align: right;\">\n",
       "      <th></th>\n",
       "      <th>swing_idx</th>\n",
       "      <th>start_idx</th>\n",
       "      <th>end_idx</th>\n",
       "    </tr>\n",
       "  </thead>\n",
       "  <tbody>\n",
       "    <tr>\n",
       "      <th>0</th>\n",
       "      <td>0</td>\n",
       "      <td>1369</td>\n",
       "      <td>1549</td>\n",
       "    </tr>\n",
       "  </tbody>\n",
       "</table>\n",
       "</div>"
      ],
      "text/plain": [
       "   swing_idx  start_idx  end_idx\n",
       "0          0       1369     1549"
      ]
     },
     "execution_count": 24,
     "metadata": {},
     "output_type": "execute_result"
    }
   ],
   "source": [
    "df.head()"
   ]
  },
  {
   "cell_type": "code",
   "execution_count": 40,
   "id": "5ad66147-e187-4e86-8591-7e5d1e277786",
   "metadata": {},
   "outputs": [],
   "source": [
    "#| code-fold: True\n",
    "import ffmpeg\n",
    "\n",
    "def make_output_filename(fname, swing_idx, score=None):\n",
    "    return f'{fname}_swing_{swing_idx}_score_{score}'\n",
    "\n",
    "def make_clip(input_file_path, \n",
    "              output_folder_path,\n",
    "              row, \n",
    "              #duration_frames=90,  # Changed from time='0:03'\n",
    "              crf='18',\n",
    "              vcodec='libx264'):   # Changed from 'copy' since we need to use filter\n",
    "    fname = input_file_path.name.split('.')[0]\n",
    "    swing_idx, start_frame, end_frame = row.values\n",
    "    output_file_name = make_output_filename(fname, swing_idx)\n",
    "    output_file_path = f'{output_folder_path}/{fname}/{output_file_name}.mp4'\n",
    "    import pdb\n",
    "    #pdb.set_trace()\n",
    "    if os.path.isdir(output_folder_path) is False:\n",
    "        os.mkdir(output_folder_path)\n",
    "        \n",
    "    # Use trim filter for frame-accurate cutting\n",
    "    (\n",
    "        ffmpeg.input(input_file_path)\n",
    "        .trim(start_frame=start_frame, \n",
    "              end_frame=end_frame)\n",
    "        .setpts('PTS-STARTPTS')  # Reset timestamps\n",
    "        .output(output_file_path, \n",
    "                vcodec=vcodec,\n",
    "                crf=crf, \n",
    "                acodec='aac')\n",
    "        .global_args('-movflags', '+faststart')\n",
    "        .overwrite_output()\n",
    "        .run()\n",
    "    )"
   ]
  },
  {
   "cell_type": "code",
   "execution_count": 43,
   "id": "cbe8641a-f7e8-4c92-889f-1609c0e83b92",
   "metadata": {},
   "outputs": [],
   "source": [
    "# for x in range(len(df)):\n",
    "#     make_clip(input_file_path=files[1], \n",
    "#               output_folder_path=parent_dir,\n",
    "#               row = df.iloc[x]\n",
    "#              )"
   ]
  },
  {
   "cell_type": "code",
   "execution_count": 52,
   "id": "34fdfb6f-4cd4-4deb-9a93-5db92e7fc2f4",
   "metadata": {},
   "outputs": [],
   "source": [
    "def end_to_end_detect(fpath, start_idx=None, num_frames=None):\n",
    "    df = find_each_swing(fpath, start_idx=start_idx, num_frames=num_frames,)#1500, )\n",
    "    parent_dir = fpath.parent\n",
    "    for x in range(len(df)):\n",
    "        make_clip(input_file_path=fpath, \n",
    "                  output_folder_path=parent_dir,\n",
    "                  row = df.iloc[x]\n",
    "                 )\n",
    "    return df"
   ]
  },
  {
   "cell_type": "code",
   "execution_count": 1,
   "id": "6be17d16-b4eb-4989-bcc9-db6db8da40e0",
   "metadata": {},
   "outputs": [],
   "source": [
    "from fastai.vision.all import *\n",
    "from auto_clipper import *"
   ]
  },
  {
   "cell_type": "code",
   "execution_count": 2,
   "id": "acb5e6b1-4132-427b-95bc-adea24384da9",
   "metadata": {},
   "outputs": [],
   "source": [
    "base_path = '../../../data/full_videos'\n",
    "swing_days = ['jun8', 'aug9', 'sep14']\n",
    "files = get_files(f'{base_path}/{swing_days[-1]}', extensions='.MOV')"
   ]
  },
  {
   "cell_type": "code",
   "execution_count": 3,
   "id": "d21e9619-1801-4800-ba57-df524e06acef",
   "metadata": {},
   "outputs": [
    {
     "data": {
      "text/plain": [
       "Path('../../../data/full_videos/sep14/IMG_1091.MOV')"
      ]
     },
     "execution_count": 3,
     "metadata": {},
     "output_type": "execute_result"
    }
   ],
   "source": [
    "files[6]"
   ]
  },
  {
   "cell_type": "code",
   "execution_count": 4,
   "id": "941e11b3-96db-4dcd-b51d-44d5d4c8ce78",
   "metadata": {},
   "outputs": [
    {
     "name": "stderr",
     "output_type": "stream",
     "text": [
      " 87%|███████████████████████████████████████████████████████████████▏         | 11665/13465 [00:30<00:04, 379.58it/s]\n"
     ]
    },
    {
     "name": "stdout",
     "output_type": "stream",
     "text": [
      "Loads checkpoint by http backend from path: https://download.openmmlab.com/mmpose/v1/body_2d_keypoint/topdown_heatmap/coco/td-hm_ViTPose-huge_8xb64-210e_coco-256x192-e32adcd4_20230314.pth\n",
      "The model and loaded state dict do not match exactly\n",
      "\n",
      "unexpected key in source state_dict: backbone.cls_token\n",
      "\n",
      "11/14 23:41:22 - mmengine - \u001b[5m\u001b[4m\u001b[33mWARNING\u001b[0m - Failed to search registry with scope \"mmpose\" in the \"function\" registry tree. As a workaround, the current \"function\" registry in \"mmengine\" is used to build instance. This may cause unexpected failure when running the built modules. Please check whether \"mmpose\" is a correct scope, or whether the registry is initialized.\n"
     ]
    },
    {
     "name": "stderr",
     "output_type": "stream",
     "text": [
      "/home/azaidi/anaconda3/envs/fastdl/lib/python3.10/importlib/__init__.py:169: UserWarning: pkg_resources is deprecated as an API. See https://setuptools.pypa.io/en/latest/pkg_resources.html. The pkg_resources package is slated for removal as early as 2025-11-30. Refrain from using this package or pin to Setuptools<81.\n",
      "  _bootstrap._exec(spec, module)\n"
     ]
    },
    {
     "name": "stdout",
     "output_type": "stream",
     "text": [
      "Loads checkpoint by http backend from path: https://download.openmmlab.com/mmpose/v1/projects/rtmposev1/rtmdet_m_8xb32-100e_coco-obj365-person-235e8209.pth\n",
      "11/14 23:41:22 - mmengine - \u001b[5m\u001b[4m\u001b[33mWARNING\u001b[0m - Failed to search registry with scope \"mmdet\" in the \"function\" registry tree. As a workaround, the current \"function\" registry in \"mmengine\" is used to build instance. This may cause unexpected failure when running the built modules. Please check whether \"mmdet\" is a correct scope, or whether the registry is initialized.\n"
     ]
    },
    {
     "name": "stderr",
     "output_type": "stream",
     "text": [
      "0it [00:00, ?it/s]/home/azaidi/Desktop/golf/tools/mmdetection/mmdet/models/layers/se_layer.py:158: FutureWarning: `torch.cuda.amp.autocast(args...)` is deprecated. Please use `torch.amp.autocast('cuda', args...)` instead.\n",
      "  with torch.cuda.amp.autocast(enabled=False):\n",
      "/home/azaidi/Desktop/golf/tools/mmdetection/mmdet/models/backbones/csp_darknet.py:118: FutureWarning: `torch.cuda.amp.autocast(args...)` is deprecated. Please use `torch.amp.autocast('cuda', args...)` instead.\n",
      "  with torch.cuda.amp.autocast(enabled=False):\n",
      "/home/azaidi/anaconda3/envs/fastdl/lib/python3.10/site-packages/torch/functional.py:554: UserWarning: torch.meshgrid: in an upcoming release, it will be required to pass the indexing argument. (Triggered internally at /pytorch/aten/src/ATen/native/TensorShape.cpp:4322.)\n",
      "  return _VF.meshgrid(tensors, **kwargs)  # type: ignore[attr-defined]\n",
      "13465it [13:01, 17.47it/s]"
     ]
    },
    {
     "name": "stdout",
     "output_type": "stream",
     "text": [
      "11/14 23:54:24 - mmengine - \u001b[4m\u001b[37mINFO\u001b[0m - the output video has been saved at ../../../data/full_videos/sep14/IMG_1091/keypoints/full_video.mp4\n"
     ]
    },
    {
     "name": "stderr",
     "output_type": "stream",
     "text": [
      "13465it [13:01, 17.24it/s]\n",
      "ffmpeg version 4.4.2-0ubuntu0.22.04.1 Copyright (c) 2000-2021 the FFmpeg developers\n",
      "  built with gcc 11 (Ubuntu 11.2.0-19ubuntu1)\n",
      "  configuration: --prefix=/usr --extra-version=0ubuntu0.22.04.1 --toolchain=hardened --libdir=/usr/lib/x86_64-linux-gnu --incdir=/usr/include/x86_64-linux-gnu --arch=amd64 --enable-gpl --disable-stripping --enable-gnutls --enable-ladspa --enable-libaom --enable-libass --enable-libbluray --enable-libbs2b --enable-libcaca --enable-libcdio --enable-libcodec2 --enable-libdav1d --enable-libflite --enable-libfontconfig --enable-libfreetype --enable-libfribidi --enable-libgme --enable-libgsm --enable-libjack --enable-libmp3lame --enable-libmysofa --enable-libopenjpeg --enable-libopenmpt --enable-libopus --enable-libpulse --enable-librabbitmq --enable-librubberband --enable-libshine --enable-libsnappy --enable-libsoxr --enable-libspeex --enable-libsrt --enable-libssh --enable-libtheora --enable-libtwolame --enable-libvidstab --enable-libvorbis --enable-libvpx --enable-libwebp --enable-libx265 --enable-libxml2 --enable-libxvid --enable-libzimg --enable-libzmq --enable-libzvbi --enable-lv2 --enable-omx --enable-openal --enable-opencl --enable-opengl --enable-sdl2 --enable-pocketsphinx --enable-librsvg --enable-libmfx --enable-libdc1394 --enable-libdrm --enable-libiec61883 --enable-chromaprint --enable-frei0r --enable-libx264 --enable-shared\n",
      "  libavutil      56. 70.100 / 56. 70.100\n",
      "  libavcodec     58.134.100 / 58.134.100\n",
      "  libavformat    58. 76.100 / 58. 76.100\n",
      "  libavdevice    58. 13.100 / 58. 13.100\n",
      "  libavfilter     7.110.100 /  7.110.100\n",
      "  libswscale      5.  9.100 /  5.  9.100\n",
      "  libswresample   3.  9.100 /  3.  9.100\n",
      "  libpostproc    55.  9.100 / 55.  9.100\n",
      "Trailing option(s) found in the command: may be ignored.\n",
      "Input #0, mov,mp4,m4a,3gp,3g2,mj2, from '../../../data/full_videos/sep14/IMG_1091.MOV':\n",
      "  Metadata:\n",
      "    major_brand     : qt  \n",
      "    minor_version   : 0\n",
      "    compatible_brands: qt  \n",
      "    creation_time   : 2025-09-16T16:38:05.000000Z\n",
      "    com.apple.quicktime.full-frame-rate-playback-intent: 0\n",
      "    com.apple.quicktime.make: Apple\n",
      "    com.apple.quicktime.model: iPhone 15\n",
      "    com.apple.quicktime.software: 18.6.2\n",
      "    com.apple.quicktime.creationdate: 2025-09-14T08:55:08-0400\n",
      "  Duration: 00:03:44.65, start: 0.000000, bitrate: 16061 kb/s\n",
      "  Stream #0:0(und): Audio: aac (LC) (mp4a / 0x6134706D), 44100 Hz, stereo, fltp, 167 kb/s (default)\n",
      "    Metadata:\n",
      "      creation_time   : 2025-09-16T16:38:05.000000Z\n",
      "      handler_name    : Core Media Audio\n",
      "      vendor_id       : [0][0][0][0]\n",
      "  Stream #0:1(und): Video: h264 (High) (avc1 / 0x31637661), yuv420p(tv, bt709), 1080x1920, 15787 kb/s, 59.94 fps, 59.94 tbr, 600 tbn, 1200 tbc (default)\n",
      "    Metadata:\n",
      "      creation_time   : 2025-09-16T16:38:05.000000Z\n",
      "      handler_name    : Core Media Video\n",
      "      vendor_id       : [0][0][0][0]\n",
      "      encoder         : H.264\n",
      "  Stream #0:2(und): Data: none (mebx / 0x7862656D) (default)\n",
      "    Metadata:\n",
      "      creation_time   : 2025-09-16T16:38:05.000000Z\n",
      "      handler_name    : Core Media Metadata\n",
      "  Stream #0:3(und): Data: none (mebx / 0x7862656D), 1 kb/s (default)\n",
      "    Metadata:\n",
      "      creation_time   : 2025-09-16T16:38:05.000000Z\n",
      "      handler_name    : Core Media Metadata\n",
      "  Stream #0:4(und): Data: none (mebx / 0x7862656D), 84 kb/s (default)\n",
      "    Metadata:\n",
      "      creation_time   : 2025-09-16T16:38:05.000000Z\n",
      "      handler_name    : Core Media Metadata\n",
      "  Stream #0:5(und): Data: none (mebx / 0x7862656D), 5 kb/s (default)\n",
      "    Metadata:\n",
      "      creation_time   : 2025-09-16T16:38:05.000000Z\n",
      "      handler_name    : Core Media Metadata\n",
      "  Stream #0:6(und): Data: none (mebx / 0x7862656D), 0 kb/s (default)\n",
      "    Metadata:\n",
      "      creation_time   : 2025-09-16T16:38:05.000000Z\n",
      "      handler_name    : Core Media Metadata\n",
      "Stream mapping:\n",
      "  Stream #0:1 (h264) -> trim\n",
      "  setpts -> Stream #0:0 (libx264)\n",
      "Press [q] to stop, [?] for help\n",
      "[libx264 @ 0x59ff46747800] using cpu capabilities: MMX2 SSE2Fast SSSE3 SSE4.2 AVX FMA3 BMI2 AVX2\n",
      "[libx264 @ 0x59ff46747800] profile High, level 4.2, 4:2:0, 8-bit\n",
      "[libx264 @ 0x59ff46747800] 264 - core 163 r3060 5db6aa6 - H.264/MPEG-4 AVC codec - Copyleft 2003-2021 - http://www.videolan.org/x264.html - options: cabac=1 ref=3 deblock=1:0:0 analyse=0x3:0x113 me=hex subme=7 psy=1 psy_rd=1.00:0.00 mixed_ref=1 me_range=16 chroma_me=1 trellis=1 8x8dct=1 cqm=0 deadzone=21,11 fast_pskip=1 chroma_qp_offset=-2 threads=24 lookahead_threads=4 sliced_threads=0 nr=0 decimate=1 interlaced=0 bluray_compat=0 constrained_intra=0 bframes=3 b_pyramid=2 b_adapt=1 b_bias=0 direct=1 weightb=1 open_gop=0 weightp=2 keyint=250 keyint_min=25 scenecut=40 intra_refresh=0 rc_lookahead=40 rc=crf mbtree=1 crf=18.0 qcomp=0.60 qpmin=0 qpmax=69 qpstep=4 ip_ratio=1.40 aq=1:1.00\n",
      "Output #0, mp4, to '../../../data/full_videos/sep14/IMG_1091/IMG_1091_swing_0_score_None.mp4':\n",
      "  Metadata:\n",
      "    major_brand     : qt  \n",
      "    minor_version   : 0\n",
      "    compatible_brands: qt  \n",
      "    com.apple.quicktime.creationdate: 2025-09-14T08:55:08-0400\n",
      "    com.apple.quicktime.full-frame-rate-playback-intent: 0\n",
      "    com.apple.quicktime.make: Apple\n",
      "    com.apple.quicktime.model: iPhone 15\n",
      "    com.apple.quicktime.software: 18.6.2\n",
      "    encoder         : Lavf58.76.100\n",
      "  Stream #0:0: Video: h264 (avc1 / 0x31637661), yuv420p(tv, bt709, progressive), 1080x1920, q=2-31, 59.94 fps, 60k tbn (default)\n",
      "    Metadata:\n",
      "      encoder         : Lavc58.134.100 libx264\n",
      "    Side data:\n",
      "      cpb: bitrate max/min/avg: 0/0/0 buffer size: 0 vbv_delay: N/A\n",
      "frame=  180 fps= 76 q=-1.0 Lsize=    4678kB time=00:00:02.95 bitrate=12976.4kbits/s speed=1.24x    \n",
      "video:4675kB audio:0kB subtitle:0kB other streams:0kB global headers:0kB muxing overhead: 0.063884%\n",
      "[libx264 @ 0x59ff46747800] frame I:1     Avg QP:17.22  size:478437\n",
      "[libx264 @ 0x59ff46747800] frame P:59    Avg QP:17.80  size: 67972\n",
      "[libx264 @ 0x59ff46747800] frame B:120   Avg QP:23.12  size:  2478\n",
      "[libx264 @ 0x59ff46747800] consecutive B-frames:  1.1% 26.7% 10.0% 62.2%\n",
      "[libx264 @ 0x59ff46747800] mb I  I16..4: 25.6% 22.2% 52.2%\n",
      "[libx264 @ 0x59ff46747800] mb P  I16..4:  2.8%  1.2%  0.1%  P16..4: 43.9%  9.5%  9.5%  0.0%  0.0%    skip:33.1%\n",
      "[libx264 @ 0x59ff46747800] mb B  I16..4:  0.3%  0.1%  0.0%  B16..8: 23.0%  1.9%  0.1%  direct: 1.3%  skip:73.2%  L0:33.8% L1:61.4% BI: 4.8%\n",
      "[libx264 @ 0x59ff46747800] 8x8 transform intra:26.8% inter:52.7%\n",
      "[libx264 @ 0x59ff46747800] coded y,uvDC,uvAC intra: 20.7% 37.8% 16.2% inter: 12.3% 9.2% 1.1%\n",
      "[libx264 @ 0x59ff46747800] i16 v,h,dc,p:  2% 82%  3% 13%\n",
      "[libx264 @ 0x59ff46747800] i8 v,h,dc,ddl,ddr,vr,hd,vl,hu:  6% 33% 53%  1%  1%  1%  1%  1%  3%\n",
      "[libx264 @ 0x59ff46747800] i4 v,h,dc,ddl,ddr,vr,hd,vl,hu:  8% 19% 18%  8% 10%  8% 10%  8% 12%\n",
      "[libx264 @ 0x59ff46747800] i8c dc,h,v,p: 48% 38%  8%  6%\n",
      "[libx264 @ 0x59ff46747800] Weighted P-Frames: Y:0.0% UV:0.0%\n",
      "[libx264 @ 0x59ff46747800] ref P L0: 78.1%  4.7% 13.9%  3.4%\n",
      "[libx264 @ 0x59ff46747800] ref B L0: 77.9% 19.1%  3.0%\n",
      "[libx264 @ 0x59ff46747800] ref B L1: 96.8%  3.2%\n",
      "[libx264 @ 0x59ff46747800] kb/s:12750.26\n",
      "ffmpeg version 4.4.2-0ubuntu0.22.04.1 Copyright (c) 2000-2021 the FFmpeg developers\n",
      "  built with gcc 11 (Ubuntu 11.2.0-19ubuntu1)\n",
      "  configuration: --prefix=/usr --extra-version=0ubuntu0.22.04.1 --toolchain=hardened --libdir=/usr/lib/x86_64-linux-gnu --incdir=/usr/include/x86_64-linux-gnu --arch=amd64 --enable-gpl --disable-stripping --enable-gnutls --enable-ladspa --enable-libaom --enable-libass --enable-libbluray --enable-libbs2b --enable-libcaca --enable-libcdio --enable-libcodec2 --enable-libdav1d --enable-libflite --enable-libfontconfig --enable-libfreetype --enable-libfribidi --enable-libgme --enable-libgsm --enable-libjack --enable-libmp3lame --enable-libmysofa --enable-libopenjpeg --enable-libopenmpt --enable-libopus --enable-libpulse --enable-librabbitmq --enable-librubberband --enable-libshine --enable-libsnappy --enable-libsoxr --enable-libspeex --enable-libsrt --enable-libssh --enable-libtheora --enable-libtwolame --enable-libvidstab --enable-libvorbis --enable-libvpx --enable-libwebp --enable-libx265 --enable-libxml2 --enable-libxvid --enable-libzimg --enable-libzmq --enable-libzvbi --enable-lv2 --enable-omx --enable-openal --enable-opencl --enable-opengl --enable-sdl2 --enable-pocketsphinx --enable-librsvg --enable-libmfx --enable-libdc1394 --enable-libdrm --enable-libiec61883 --enable-chromaprint --enable-frei0r --enable-libx264 --enable-shared\n",
      "  libavutil      56. 70.100 / 56. 70.100\n",
      "  libavcodec     58.134.100 / 58.134.100\n",
      "  libavformat    58. 76.100 / 58. 76.100\n",
      "  libavdevice    58. 13.100 / 58. 13.100\n",
      "  libavfilter     7.110.100 /  7.110.100\n",
      "  libswscale      5.  9.100 /  5.  9.100\n",
      "  libswresample   3.  9.100 /  3.  9.100\n",
      "  libpostproc    55.  9.100 / 55.  9.100\n",
      "Trailing option(s) found in the command: may be ignored.\n",
      "Input #0, mov,mp4,m4a,3gp,3g2,mj2, from '../../../data/full_videos/sep14/IMG_1091.MOV':\n",
      "  Metadata:\n",
      "    major_brand     : qt  \n",
      "    minor_version   : 0\n",
      "    compatible_brands: qt  \n",
      "    creation_time   : 2025-09-16T16:38:05.000000Z\n",
      "    com.apple.quicktime.full-frame-rate-playback-intent: 0\n",
      "    com.apple.quicktime.make: Apple\n",
      "    com.apple.quicktime.model: iPhone 15\n",
      "    com.apple.quicktime.software: 18.6.2\n",
      "    com.apple.quicktime.creationdate: 2025-09-14T08:55:08-0400\n",
      "  Duration: 00:03:44.65, start: 0.000000, bitrate: 16061 kb/s\n",
      "  Stream #0:0(und): Audio: aac (LC) (mp4a / 0x6134706D), 44100 Hz, stereo, fltp, 167 kb/s (default)\n",
      "    Metadata:\n",
      "      creation_time   : 2025-09-16T16:38:05.000000Z\n",
      "      handler_name    : Core Media Audio\n",
      "      vendor_id       : [0][0][0][0]\n",
      "  Stream #0:1(und): Video: h264 (High) (avc1 / 0x31637661), yuv420p(tv, bt709), 1080x1920, 15787 kb/s, 59.94 fps, 59.94 tbr, 600 tbn, 1200 tbc (default)\n",
      "    Metadata:\n",
      "      creation_time   : 2025-09-16T16:38:05.000000Z\n",
      "      handler_name    : Core Media Video\n",
      "      vendor_id       : [0][0][0][0]\n",
      "      encoder         : H.264\n",
      "  Stream #0:2(und): Data: none (mebx / 0x7862656D) (default)\n",
      "    Metadata:\n",
      "      creation_time   : 2025-09-16T16:38:05.000000Z\n",
      "      handler_name    : Core Media Metadata\n",
      "  Stream #0:3(und): Data: none (mebx / 0x7862656D), 1 kb/s (default)\n",
      "    Metadata:\n",
      "      creation_time   : 2025-09-16T16:38:05.000000Z\n",
      "      handler_name    : Core Media Metadata\n",
      "  Stream #0:4(und): Data: none (mebx / 0x7862656D), 84 kb/s (default)\n",
      "    Metadata:\n",
      "      creation_time   : 2025-09-16T16:38:05.000000Z\n",
      "      handler_name    : Core Media Metadata\n",
      "  Stream #0:5(und): Data: none (mebx / 0x7862656D), 5 kb/s (default)\n",
      "    Metadata:\n",
      "      creation_time   : 2025-09-16T16:38:05.000000Z\n",
      "      handler_name    : Core Media Metadata\n",
      "  Stream #0:6(und): Data: none (mebx / 0x7862656D), 0 kb/s (default)\n",
      "    Metadata:\n",
      "      creation_time   : 2025-09-16T16:38:05.000000Z\n",
      "      handler_name    : Core Media Metadata\n",
      "Stream mapping:\n",
      "  Stream #0:1 (h264) -> trim\n",
      "  setpts -> Stream #0:0 (libx264)\n",
      "Press [q] to stop, [?] for help\n",
      "[libx264 @ 0x644113ffa800] using cpu capabilities: MMX2 SSE2Fast SSSE3 SSE4.2 AVX FMA3 BMI2 AVX2\n",
      "[libx264 @ 0x644113ffa800] profile High, level 4.2, 4:2:0, 8-bit\n",
      "[libx264 @ 0x644113ffa800] 264 - core 163 r3060 5db6aa6 - H.264/MPEG-4 AVC codec - Copyleft 2003-2021 - http://www.videolan.org/x264.html - options: cabac=1 ref=3 deblock=1:0:0 analyse=0x3:0x113 me=hex subme=7 psy=1 psy_rd=1.00:0.00 mixed_ref=1 me_range=16 chroma_me=1 trellis=1 8x8dct=1 cqm=0 deadzone=21,11 fast_pskip=1 chroma_qp_offset=-2 threads=24 lookahead_threads=4 sliced_threads=0 nr=0 decimate=1 interlaced=0 bluray_compat=0 constrained_intra=0 bframes=3 b_pyramid=2 b_adapt=1 b_bias=0 direct=1 weightb=1 open_gop=0 weightp=2 keyint=250 keyint_min=25 scenecut=40 intra_refresh=0 rc_lookahead=40 rc=crf mbtree=1 crf=18.0 qcomp=0.60 qpmin=0 qpmax=69 qpstep=4 ip_ratio=1.40 aq=1:1.00\n",
      "Output #0, mp4, to '../../../data/full_videos/sep14/IMG_1091/IMG_1091_swing_1_score_None.mp4':\n",
      "  Metadata:\n",
      "    major_brand     : qt  \n",
      "    minor_version   : 0\n",
      "    compatible_brands: qt  \n",
      "    com.apple.quicktime.creationdate: 2025-09-14T08:55:08-0400\n",
      "    com.apple.quicktime.full-frame-rate-playback-intent: 0\n",
      "    com.apple.quicktime.make: Apple\n",
      "    com.apple.quicktime.model: iPhone 15\n",
      "    com.apple.quicktime.software: 18.6.2\n",
      "    encoder         : Lavf58.76.100\n",
      "  Stream #0:0: Video: h264 (avc1 / 0x31637661), yuv420p(tv, bt709, progressive), 1080x1920, q=2-31, 59.94 fps, 60k tbn (default)\n",
      "    Metadata:\n",
      "      encoder         : Lavc58.134.100 libx264\n",
      "    Side data:\n",
      "      cpb: bitrate max/min/avg: 0/0/0 buffer size: 0 vbv_delay: N/A\n",
      "frame=  180 fps= 35 q=-1.0 Lsize=    5205kB time=00:00:02.95 bitrate=14439.3kbits/s speed=0.577x    \n",
      "video:5202kB audio:0kB subtitle:0kB other streams:0kB global headers:0kB muxing overhead: 0.057483%\n",
      "[libx264 @ 0x644113ffa800] frame I:1     Avg QP:17.09  size:482177\n",
      "[libx264 @ 0x644113ffa800] frame P:55    Avg QP:18.09  size: 72714\n",
      "[libx264 @ 0x644113ffa800] frame B:124   Avg QP:24.26  size:  6812\n",
      "[libx264 @ 0x644113ffa800] consecutive B-frames:  1.1% 17.8% 10.0% 71.1%\n",
      "[libx264 @ 0x644113ffa800] mb I  I16..4: 24.5% 26.2% 49.4%\n",
      "[libx264 @ 0x644113ffa800] mb P  I16..4:  2.4%  1.9%  0.8%  P16..4: 41.0%  8.6%  8.9%  0.0%  0.0%    skip:36.3%\n",
      "[libx264 @ 0x644113ffa800] mb B  I16..4:  0.3%  0.1%  0.1%  B16..8: 19.7%  3.0%  0.9%  direct: 0.8%  skip:75.1%  L0:35.4% L1:56.9% BI: 7.7%\n",
      "[libx264 @ 0x644113ffa800] 8x8 transform intra:33.4% inter:50.7%\n",
      "[libx264 @ 0x644113ffa800] coded y,uvDC,uvAC intra: 35.1% 43.0% 21.5% inter: 12.0% 7.1% 0.8%\n",
      "[libx264 @ 0x644113ffa800] i16 v,h,dc,p:  3% 77%  4% 15%\n",
      "[libx264 @ 0x644113ffa800] i8 v,h,dc,ddl,ddr,vr,hd,vl,hu:  8% 29% 46%  2%  3%  2%  4%  2%  4%\n",
      "[libx264 @ 0x644113ffa800] i4 v,h,dc,ddl,ddr,vr,hd,vl,hu: 11% 16% 16%  7% 12%  9% 12%  7%  9%\n",
      "[libx264 @ 0x644113ffa800] i8c dc,h,v,p: 51% 31% 11%  7%\n",
      "[libx264 @ 0x644113ffa800] Weighted P-Frames: Y:0.0% UV:0.0%\n",
      "[libx264 @ 0x644113ffa800] ref P L0: 79.4%  6.5% 12.1%  1.9%\n",
      "[libx264 @ 0x644113ffa800] ref B L0: 85.8% 12.4%  1.8%\n",
      "[libx264 @ 0x644113ffa800] ref B L1: 97.3%  2.7%\n",
      "[libx264 @ 0x644113ffa800] kb/s:14188.76\n",
      "ffmpeg version 4.4.2-0ubuntu0.22.04.1 Copyright (c) 2000-2021 the FFmpeg developers\n",
      "  built with gcc 11 (Ubuntu 11.2.0-19ubuntu1)\n",
      "  configuration: --prefix=/usr --extra-version=0ubuntu0.22.04.1 --toolchain=hardened --libdir=/usr/lib/x86_64-linux-gnu --incdir=/usr/include/x86_64-linux-gnu --arch=amd64 --enable-gpl --disable-stripping --enable-gnutls --enable-ladspa --enable-libaom --enable-libass --enable-libbluray --enable-libbs2b --enable-libcaca --enable-libcdio --enable-libcodec2 --enable-libdav1d --enable-libflite --enable-libfontconfig --enable-libfreetype --enable-libfribidi --enable-libgme --enable-libgsm --enable-libjack --enable-libmp3lame --enable-libmysofa --enable-libopenjpeg --enable-libopenmpt --enable-libopus --enable-libpulse --enable-librabbitmq --enable-librubberband --enable-libshine --enable-libsnappy --enable-libsoxr --enable-libspeex --enable-libsrt --enable-libssh --enable-libtheora --enable-libtwolame --enable-libvidstab --enable-libvorbis --enable-libvpx --enable-libwebp --enable-libx265 --enable-libxml2 --enable-libxvid --enable-libzimg --enable-libzmq --enable-libzvbi --enable-lv2 --enable-omx --enable-openal --enable-opencl --enable-opengl --enable-sdl2 --enable-pocketsphinx --enable-librsvg --enable-libmfx --enable-libdc1394 --enable-libdrm --enable-libiec61883 --enable-chromaprint --enable-frei0r --enable-libx264 --enable-shared\n",
      "  libavutil      56. 70.100 / 56. 70.100\n",
      "  libavcodec     58.134.100 / 58.134.100\n",
      "  libavformat    58. 76.100 / 58. 76.100\n",
      "  libavdevice    58. 13.100 / 58. 13.100\n",
      "  libavfilter     7.110.100 /  7.110.100\n",
      "  libswscale      5.  9.100 /  5.  9.100\n",
      "  libswresample   3.  9.100 /  3.  9.100\n",
      "  libpostproc    55.  9.100 / 55.  9.100\n",
      "Trailing option(s) found in the command: may be ignored.\n",
      "Input #0, mov,mp4,m4a,3gp,3g2,mj2, from '../../../data/full_videos/sep14/IMG_1091.MOV':\n",
      "  Metadata:\n",
      "    major_brand     : qt  \n",
      "    minor_version   : 0\n",
      "    compatible_brands: qt  \n",
      "    creation_time   : 2025-09-16T16:38:05.000000Z\n",
      "    com.apple.quicktime.full-frame-rate-playback-intent: 0\n",
      "    com.apple.quicktime.make: Apple\n",
      "    com.apple.quicktime.model: iPhone 15\n",
      "    com.apple.quicktime.software: 18.6.2\n",
      "    com.apple.quicktime.creationdate: 2025-09-14T08:55:08-0400\n",
      "  Duration: 00:03:44.65, start: 0.000000, bitrate: 16061 kb/s\n",
      "  Stream #0:0(und): Audio: aac (LC) (mp4a / 0x6134706D), 44100 Hz, stereo, fltp, 167 kb/s (default)\n",
      "    Metadata:\n",
      "      creation_time   : 2025-09-16T16:38:05.000000Z\n",
      "      handler_name    : Core Media Audio\n",
      "      vendor_id       : [0][0][0][0]\n",
      "  Stream #0:1(und): Video: h264 (High) (avc1 / 0x31637661), yuv420p(tv, bt709), 1080x1920, 15787 kb/s, 59.94 fps, 59.94 tbr, 600 tbn, 1200 tbc (default)\n",
      "    Metadata:\n",
      "      creation_time   : 2025-09-16T16:38:05.000000Z\n",
      "      handler_name    : Core Media Video\n",
      "      vendor_id       : [0][0][0][0]\n",
      "      encoder         : H.264\n",
      "  Stream #0:2(und): Data: none (mebx / 0x7862656D) (default)\n",
      "    Metadata:\n",
      "      creation_time   : 2025-09-16T16:38:05.000000Z\n",
      "      handler_name    : Core Media Metadata\n",
      "  Stream #0:3(und): Data: none (mebx / 0x7862656D), 1 kb/s (default)\n",
      "    Metadata:\n",
      "      creation_time   : 2025-09-16T16:38:05.000000Z\n",
      "      handler_name    : Core Media Metadata\n",
      "  Stream #0:4(und): Data: none (mebx / 0x7862656D), 84 kb/s (default)\n",
      "    Metadata:\n",
      "      creation_time   : 2025-09-16T16:38:05.000000Z\n",
      "      handler_name    : Core Media Metadata\n",
      "  Stream #0:5(und): Data: none (mebx / 0x7862656D), 5 kb/s (default)\n",
      "    Metadata:\n",
      "      creation_time   : 2025-09-16T16:38:05.000000Z\n",
      "      handler_name    : Core Media Metadata\n",
      "  Stream #0:6(und): Data: none (mebx / 0x7862656D), 0 kb/s (default)\n",
      "    Metadata:\n",
      "      creation_time   : 2025-09-16T16:38:05.000000Z\n",
      "      handler_name    : Core Media Metadata\n",
      "Stream mapping:\n",
      "  Stream #0:1 (h264) -> trim\n",
      "  setpts -> Stream #0:0 (libx264)\n",
      "Press [q] to stop, [?] for help\n",
      "[libx264 @ 0x58c2d2fce800] using cpu capabilities: MMX2 SSE2Fast SSSE3 SSE4.2 AVX FMA3 BMI2 AVX2\n",
      "[libx264 @ 0x58c2d2fce800] profile High, level 4.2, 4:2:0, 8-bit\n",
      "[libx264 @ 0x58c2d2fce800] 264 - core 163 r3060 5db6aa6 - H.264/MPEG-4 AVC codec - Copyleft 2003-2021 - http://www.videolan.org/x264.html - options: cabac=1 ref=3 deblock=1:0:0 analyse=0x3:0x113 me=hex subme=7 psy=1 psy_rd=1.00:0.00 mixed_ref=1 me_range=16 chroma_me=1 trellis=1 8x8dct=1 cqm=0 deadzone=21,11 fast_pskip=1 chroma_qp_offset=-2 threads=24 lookahead_threads=4 sliced_threads=0 nr=0 decimate=1 interlaced=0 bluray_compat=0 constrained_intra=0 bframes=3 b_pyramid=2 b_adapt=1 b_bias=0 direct=1 weightb=1 open_gop=0 weightp=2 keyint=250 keyint_min=25 scenecut=40 intra_refresh=0 rc_lookahead=40 rc=crf mbtree=1 crf=18.0 qcomp=0.60 qpmin=0 qpmax=69 qpstep=4 ip_ratio=1.40 aq=1:1.00\n",
      "Output #0, mp4, to '../../../data/full_videos/sep14/IMG_1091/IMG_1091_swing_2_score_None.mp4':\n",
      "  Metadata:\n",
      "    major_brand     : qt  \n",
      "    minor_version   : 0\n",
      "    compatible_brands: qt  \n",
      "    com.apple.quicktime.creationdate: 2025-09-14T08:55:08-0400\n",
      "    com.apple.quicktime.full-frame-rate-playback-intent: 0\n",
      "    com.apple.quicktime.make: Apple\n",
      "    com.apple.quicktime.model: iPhone 15\n",
      "    com.apple.quicktime.software: 18.6.2\n",
      "    encoder         : Lavf58.76.100\n",
      "  Stream #0:0: Video: h264 (avc1 / 0x31637661), yuv420p(tv, bt709, progressive), 1080x1920, q=2-31, 59.94 fps, 60k tbn (default)\n",
      "    Metadata:\n",
      "      encoder         : Lavc58.134.100 libx264\n",
      "    Side data:\n",
      "      cpb: bitrate max/min/avg: 0/0/0 buffer size: 0 vbv_delay: N/A\n",
      "frame=  180 fps= 23 q=-1.0 Lsize=    5034kB time=00:00:02.95 bitrate=13965.4kbits/s speed=0.385x    \n",
      "video:5031kB audio:0kB subtitle:0kB other streams:0kB global headers:0kB muxing overhead: 0.059979%\n",
      "[libx264 @ 0x58c2d2fce800] frame I:1     Avg QP:17.92  size:440021\n",
      "[libx264 @ 0x58c2d2fce800] frame P:55    Avg QP:17.95  size: 74245\n",
      "[libx264 @ 0x58c2d2fce800] frame B:124   Avg QP:24.11  size:  5062\n",
      "[libx264 @ 0x58c2d2fce800] consecutive B-frames:  1.1% 18.9%  6.7% 73.3%\n",
      "[libx264 @ 0x58c2d2fce800] mb I  I16..4: 25.2% 33.0% 41.8%\n",
      "[libx264 @ 0x58c2d2fce800] mb P  I16..4:  2.5%  1.6%  0.4%  P16..4: 41.0%  9.6%  9.2%  0.0%  0.0%    skip:35.7%\n",
      "[libx264 @ 0x58c2d2fce800] mb B  I16..4:  0.2%  0.1%  0.0%  B16..8: 21.0%  2.7%  0.7%  direct: 1.0%  skip:74.2%  L0:36.8% L1:55.7% BI: 7.4%\n",
      "[libx264 @ 0x58c2d2fce800] 8x8 transform intra:33.6% inter:51.9%\n",
      "[libx264 @ 0x58c2d2fce800] coded y,uvDC,uvAC intra: 28.7% 41.2% 18.6% inter: 12.3% 7.1% 0.9%\n",
      "[libx264 @ 0x58c2d2fce800] i16 v,h,dc,p:  3% 80%  4% 14%\n",
      "[libx264 @ 0x58c2d2fce800] i8 v,h,dc,ddl,ddr,vr,hd,vl,hu:  8% 30% 48%  2%  2%  2%  2%  2%  4%\n",
      "[libx264 @ 0x58c2d2fce800] i4 v,h,dc,ddl,ddr,vr,hd,vl,hu: 13% 20% 18%  7%  9%  8%  8%  8%  9%\n",
      "[libx264 @ 0x58c2d2fce800] i8c dc,h,v,p: 51% 32% 11%  6%\n",
      "[libx264 @ 0x58c2d2fce800] Weighted P-Frames: Y:0.0% UV:0.0%\n",
      "[libx264 @ 0x58c2d2fce800] ref P L0: 79.3%  6.9% 11.6%  2.1%\n",
      "[libx264 @ 0x58c2d2fce800] ref B L0: 88.0% 10.8%  1.3%\n",
      "[libx264 @ 0x58c2d2fce800] ref B L1: 97.2%  2.8%\n",
      "[libx264 @ 0x58c2d2fce800] kb/s:13722.68\n",
      "ffmpeg version 4.4.2-0ubuntu0.22.04.1 Copyright (c) 2000-2021 the FFmpeg developers\n",
      "  built with gcc 11 (Ubuntu 11.2.0-19ubuntu1)\n",
      "  configuration: --prefix=/usr --extra-version=0ubuntu0.22.04.1 --toolchain=hardened --libdir=/usr/lib/x86_64-linux-gnu --incdir=/usr/include/x86_64-linux-gnu --arch=amd64 --enable-gpl --disable-stripping --enable-gnutls --enable-ladspa --enable-libaom --enable-libass --enable-libbluray --enable-libbs2b --enable-libcaca --enable-libcdio --enable-libcodec2 --enable-libdav1d --enable-libflite --enable-libfontconfig --enable-libfreetype --enable-libfribidi --enable-libgme --enable-libgsm --enable-libjack --enable-libmp3lame --enable-libmysofa --enable-libopenjpeg --enable-libopenmpt --enable-libopus --enable-libpulse --enable-librabbitmq --enable-librubberband --enable-libshine --enable-libsnappy --enable-libsoxr --enable-libspeex --enable-libsrt --enable-libssh --enable-libtheora --enable-libtwolame --enable-libvidstab --enable-libvorbis --enable-libvpx --enable-libwebp --enable-libx265 --enable-libxml2 --enable-libxvid --enable-libzimg --enable-libzmq --enable-libzvbi --enable-lv2 --enable-omx --enable-openal --enable-opencl --enable-opengl --enable-sdl2 --enable-pocketsphinx --enable-librsvg --enable-libmfx --enable-libdc1394 --enable-libdrm --enable-libiec61883 --enable-chromaprint --enable-frei0r --enable-libx264 --enable-shared\n",
      "  libavutil      56. 70.100 / 56. 70.100\n",
      "  libavcodec     58.134.100 / 58.134.100\n",
      "  libavformat    58. 76.100 / 58. 76.100\n",
      "  libavdevice    58. 13.100 / 58. 13.100\n",
      "  libavfilter     7.110.100 /  7.110.100\n",
      "  libswscale      5.  9.100 /  5.  9.100\n",
      "  libswresample   3.  9.100 /  3.  9.100\n",
      "  libpostproc    55.  9.100 / 55.  9.100\n",
      "Trailing option(s) found in the command: may be ignored.\n",
      "Input #0, mov,mp4,m4a,3gp,3g2,mj2, from '../../../data/full_videos/sep14/IMG_1091.MOV':\n",
      "  Metadata:\n",
      "    major_brand     : qt  \n",
      "    minor_version   : 0\n",
      "    compatible_brands: qt  \n",
      "    creation_time   : 2025-09-16T16:38:05.000000Z\n",
      "    com.apple.quicktime.full-frame-rate-playback-intent: 0\n",
      "    com.apple.quicktime.make: Apple\n",
      "    com.apple.quicktime.model: iPhone 15\n",
      "    com.apple.quicktime.software: 18.6.2\n",
      "    com.apple.quicktime.creationdate: 2025-09-14T08:55:08-0400\n",
      "  Duration: 00:03:44.65, start: 0.000000, bitrate: 16061 kb/s\n",
      "  Stream #0:0(und): Audio: aac (LC) (mp4a / 0x6134706D), 44100 Hz, stereo, fltp, 167 kb/s (default)\n",
      "    Metadata:\n",
      "      creation_time   : 2025-09-16T16:38:05.000000Z\n",
      "      handler_name    : Core Media Audio\n",
      "      vendor_id       : [0][0][0][0]\n",
      "  Stream #0:1(und): Video: h264 (High) (avc1 / 0x31637661), yuv420p(tv, bt709), 1080x1920, 15787 kb/s, 59.94 fps, 59.94 tbr, 600 tbn, 1200 tbc (default)\n",
      "    Metadata:\n",
      "      creation_time   : 2025-09-16T16:38:05.000000Z\n",
      "      handler_name    : Core Media Video\n",
      "      vendor_id       : [0][0][0][0]\n",
      "      encoder         : H.264\n",
      "  Stream #0:2(und): Data: none (mebx / 0x7862656D) (default)\n",
      "    Metadata:\n",
      "      creation_time   : 2025-09-16T16:38:05.000000Z\n",
      "      handler_name    : Core Media Metadata\n",
      "  Stream #0:3(und): Data: none (mebx / 0x7862656D), 1 kb/s (default)\n",
      "    Metadata:\n",
      "      creation_time   : 2025-09-16T16:38:05.000000Z\n",
      "      handler_name    : Core Media Metadata\n",
      "  Stream #0:4(und): Data: none (mebx / 0x7862656D), 84 kb/s (default)\n",
      "    Metadata:\n",
      "      creation_time   : 2025-09-16T16:38:05.000000Z\n",
      "      handler_name    : Core Media Metadata\n",
      "  Stream #0:5(und): Data: none (mebx / 0x7862656D), 5 kb/s (default)\n",
      "    Metadata:\n",
      "      creation_time   : 2025-09-16T16:38:05.000000Z\n",
      "      handler_name    : Core Media Metadata\n",
      "  Stream #0:6(und): Data: none (mebx / 0x7862656D), 0 kb/s (default)\n",
      "    Metadata:\n",
      "      creation_time   : 2025-09-16T16:38:05.000000Z\n",
      "      handler_name    : Core Media Metadata\n",
      "Stream mapping:\n",
      "  Stream #0:1 (h264) -> trim\n",
      "  setpts -> Stream #0:0 (libx264)\n",
      "Press [q] to stop, [?] for help\n",
      "[libx264 @ 0x5dc839737800] using cpu capabilities: MMX2 SSE2Fast SSSE3 SSE4.2 AVX FMA3 BMI2 AVX2\n",
      "[libx264 @ 0x5dc839737800] profile High, level 4.2, 4:2:0, 8-bit\n",
      "[libx264 @ 0x5dc839737800] 264 - core 163 r3060 5db6aa6 - H.264/MPEG-4 AVC codec - Copyleft 2003-2021 - http://www.videolan.org/x264.html - options: cabac=1 ref=3 deblock=1:0:0 analyse=0x3:0x113 me=hex subme=7 psy=1 psy_rd=1.00:0.00 mixed_ref=1 me_range=16 chroma_me=1 trellis=1 8x8dct=1 cqm=0 deadzone=21,11 fast_pskip=1 chroma_qp_offset=-2 threads=24 lookahead_threads=4 sliced_threads=0 nr=0 decimate=1 interlaced=0 bluray_compat=0 constrained_intra=0 bframes=3 b_pyramid=2 b_adapt=1 b_bias=0 direct=1 weightb=1 open_gop=0 weightp=2 keyint=250 keyint_min=25 scenecut=40 intra_refresh=0 rc_lookahead=40 rc=crf mbtree=1 crf=18.0 qcomp=0.60 qpmin=0 qpmax=69 qpstep=4 ip_ratio=1.40 aq=1:1.00\n",
      "Output #0, mp4, to '../../../data/full_videos/sep14/IMG_1091/IMG_1091_swing_3_score_None.mp4':\n",
      "  Metadata:\n",
      "    major_brand     : qt  \n",
      "    minor_version   : 0\n",
      "    compatible_brands: qt  \n",
      "    com.apple.quicktime.creationdate: 2025-09-14T08:55:08-0400\n",
      "    com.apple.quicktime.full-frame-rate-playback-intent: 0\n",
      "    com.apple.quicktime.make: Apple\n",
      "    com.apple.quicktime.model: iPhone 15\n",
      "    com.apple.quicktime.software: 18.6.2\n",
      "    encoder         : Lavf58.76.100\n",
      "  Stream #0:0: Video: h264 (avc1 / 0x31637661), yuv420p(tv, bt709, progressive), 1080x1920, q=2-31, 59.94 fps, 60k tbn (default)\n",
      "    Metadata:\n",
      "      encoder         : Lavc58.134.100 libx264\n",
      "    Side data:\n",
      "      cpb: bitrate max/min/avg: 0/0/0 buffer size: 0 vbv_delay: N/A\n",
      "frame=  180 fps= 16 q=-1.0 Lsize=    5120kB time=00:00:02.95 bitrate=14204.8kbits/s speed=0.267x    \n",
      "video:5117kB audio:0kB subtitle:0kB other streams:0kB global headers:0kB muxing overhead: 0.058814%\n",
      "[libx264 @ 0x5dc839737800] frame I:1     Avg QP:17.46  size:457204\n",
      "[libx264 @ 0x5dc839737800] frame P:56    Avg QP:17.82  size: 75689\n",
      "[libx264 @ 0x5dc839737800] frame B:123   Avg QP:23.61  size:  4421\n",
      "[libx264 @ 0x5dc839737800] consecutive B-frames:  0.6% 22.2%  8.3% 68.9%\n",
      "[libx264 @ 0x5dc839737800] mb I  I16..4: 25.3% 23.9% 50.8%\n",
      "[libx264 @ 0x5dc839737800] mb P  I16..4:  2.3%  1.3%  0.4%  P16..4: 41.5%  9.9%  9.4%  0.0%  0.0%    skip:35.3%\n",
      "[libx264 @ 0x5dc839737800] mb B  I16..4:  0.2%  0.1%  0.0%  B16..8: 20.2%  2.7%  0.6%  direct: 0.8%  skip:75.4%  L0:33.3% L1:58.6% BI: 8.0%\n",
      "[libx264 @ 0x5dc839737800] 8x8 transform intra:29.2% inter:52.2%\n",
      "[libx264 @ 0x5dc839737800] coded y,uvDC,uvAC intra: 29.4% 39.9% 19.0% inter: 13.1% 7.1% 0.9%\n",
      "[libx264 @ 0x5dc839737800] i16 v,h,dc,p:  3% 80%  4% 13%\n",
      "[libx264 @ 0x5dc839737800] i8 v,h,dc,ddl,ddr,vr,hd,vl,hu:  8% 31% 50%  1%  2%  2%  2%  1%  3%\n",
      "[libx264 @ 0x5dc839737800] i4 v,h,dc,ddl,ddr,vr,hd,vl,hu: 12% 18% 17%  8%  9%  9%  9%  8% 10%\n",
      "[libx264 @ 0x5dc839737800] i8c dc,h,v,p: 50% 34% 10%  6%\n",
      "[libx264 @ 0x5dc839737800] Weighted P-Frames: Y:0.0% UV:0.0%\n",
      "[libx264 @ 0x5dc839737800] ref P L0: 78.6%  7.0% 11.9%  2.5%\n",
      "[libx264 @ 0x5dc839737800] ref B L0: 86.9% 11.7%  1.5%\n",
      "[libx264 @ 0x5dc839737800] ref B L1: 97.2%  2.8%\n",
      "[libx264 @ 0x5dc839737800] kb/s:13958.13\n",
      "ffmpeg version 4.4.2-0ubuntu0.22.04.1 Copyright (c) 2000-2021 the FFmpeg developers\n",
      "  built with gcc 11 (Ubuntu 11.2.0-19ubuntu1)\n",
      "  configuration: --prefix=/usr --extra-version=0ubuntu0.22.04.1 --toolchain=hardened --libdir=/usr/lib/x86_64-linux-gnu --incdir=/usr/include/x86_64-linux-gnu --arch=amd64 --enable-gpl --disable-stripping --enable-gnutls --enable-ladspa --enable-libaom --enable-libass --enable-libbluray --enable-libbs2b --enable-libcaca --enable-libcdio --enable-libcodec2 --enable-libdav1d --enable-libflite --enable-libfontconfig --enable-libfreetype --enable-libfribidi --enable-libgme --enable-libgsm --enable-libjack --enable-libmp3lame --enable-libmysofa --enable-libopenjpeg --enable-libopenmpt --enable-libopus --enable-libpulse --enable-librabbitmq --enable-librubberband --enable-libshine --enable-libsnappy --enable-libsoxr --enable-libspeex --enable-libsrt --enable-libssh --enable-libtheora --enable-libtwolame --enable-libvidstab --enable-libvorbis --enable-libvpx --enable-libwebp --enable-libx265 --enable-libxml2 --enable-libxvid --enable-libzimg --enable-libzmq --enable-libzvbi --enable-lv2 --enable-omx --enable-openal --enable-opencl --enable-opengl --enable-sdl2 --enable-pocketsphinx --enable-librsvg --enable-libmfx --enable-libdc1394 --enable-libdrm --enable-libiec61883 --enable-chromaprint --enable-frei0r --enable-libx264 --enable-shared\n",
      "  libavutil      56. 70.100 / 56. 70.100\n",
      "  libavcodec     58.134.100 / 58.134.100\n",
      "  libavformat    58. 76.100 / 58. 76.100\n",
      "  libavdevice    58. 13.100 / 58. 13.100\n",
      "  libavfilter     7.110.100 /  7.110.100\n",
      "  libswscale      5.  9.100 /  5.  9.100\n",
      "  libswresample   3.  9.100 /  3.  9.100\n",
      "  libpostproc    55.  9.100 / 55.  9.100\n",
      "Trailing option(s) found in the command: may be ignored.\n",
      "Input #0, mov,mp4,m4a,3gp,3g2,mj2, from '../../../data/full_videos/sep14/IMG_1091.MOV':\n",
      "  Metadata:\n",
      "    major_brand     : qt  \n",
      "    minor_version   : 0\n",
      "    compatible_brands: qt  \n",
      "    creation_time   : 2025-09-16T16:38:05.000000Z\n",
      "    com.apple.quicktime.full-frame-rate-playback-intent: 0\n",
      "    com.apple.quicktime.make: Apple\n",
      "    com.apple.quicktime.model: iPhone 15\n",
      "    com.apple.quicktime.software: 18.6.2\n",
      "    com.apple.quicktime.creationdate: 2025-09-14T08:55:08-0400\n",
      "  Duration: 00:03:44.65, start: 0.000000, bitrate: 16061 kb/s\n",
      "  Stream #0:0(und): Audio: aac (LC) (mp4a / 0x6134706D), 44100 Hz, stereo, fltp, 167 kb/s (default)\n",
      "    Metadata:\n",
      "      creation_time   : 2025-09-16T16:38:05.000000Z\n",
      "      handler_name    : Core Media Audio\n",
      "      vendor_id       : [0][0][0][0]\n",
      "  Stream #0:1(und): Video: h264 (High) (avc1 / 0x31637661), yuv420p(tv, bt709), 1080x1920, 15787 kb/s, 59.94 fps, 59.94 tbr, 600 tbn, 1200 tbc (default)\n",
      "    Metadata:\n",
      "      creation_time   : 2025-09-16T16:38:05.000000Z\n",
      "      handler_name    : Core Media Video\n",
      "      vendor_id       : [0][0][0][0]\n",
      "      encoder         : H.264\n",
      "  Stream #0:2(und): Data: none (mebx / 0x7862656D) (default)\n",
      "    Metadata:\n",
      "      creation_time   : 2025-09-16T16:38:05.000000Z\n",
      "      handler_name    : Core Media Metadata\n",
      "  Stream #0:3(und): Data: none (mebx / 0x7862656D), 1 kb/s (default)\n",
      "    Metadata:\n",
      "      creation_time   : 2025-09-16T16:38:05.000000Z\n",
      "      handler_name    : Core Media Metadata\n",
      "  Stream #0:4(und): Data: none (mebx / 0x7862656D), 84 kb/s (default)\n",
      "    Metadata:\n",
      "      creation_time   : 2025-09-16T16:38:05.000000Z\n",
      "      handler_name    : Core Media Metadata\n",
      "  Stream #0:5(und): Data: none (mebx / 0x7862656D), 5 kb/s (default)\n",
      "    Metadata:\n",
      "      creation_time   : 2025-09-16T16:38:05.000000Z\n",
      "      handler_name    : Core Media Metadata\n",
      "  Stream #0:6(und): Data: none (mebx / 0x7862656D), 0 kb/s (default)\n",
      "    Metadata:\n",
      "      creation_time   : 2025-09-16T16:38:05.000000Z\n",
      "      handler_name    : Core Media Metadata\n",
      "Stream mapping:\n",
      "  Stream #0:1 (h264) -> trim\n",
      "  setpts -> Stream #0:0 (libx264)\n",
      "Press [q] to stop, [?] for help\n",
      "[libx264 @ 0x59a6decac800] using cpu capabilities: MMX2 SSE2Fast SSSE3 SSE4.2 AVX FMA3 BMI2 AVX2\n",
      "[libx264 @ 0x59a6decac800] profile High, level 4.2, 4:2:0, 8-bit\n",
      "[libx264 @ 0x59a6decac800] 264 - core 163 r3060 5db6aa6 - H.264/MPEG-4 AVC codec - Copyleft 2003-2021 - http://www.videolan.org/x264.html - options: cabac=1 ref=3 deblock=1:0:0 analyse=0x3:0x113 me=hex subme=7 psy=1 psy_rd=1.00:0.00 mixed_ref=1 me_range=16 chroma_me=1 trellis=1 8x8dct=1 cqm=0 deadzone=21,11 fast_pskip=1 chroma_qp_offset=-2 threads=24 lookahead_threads=4 sliced_threads=0 nr=0 decimate=1 interlaced=0 bluray_compat=0 constrained_intra=0 bframes=3 b_pyramid=2 b_adapt=1 b_bias=0 direct=1 weightb=1 open_gop=0 weightp=2 keyint=250 keyint_min=25 scenecut=40 intra_refresh=0 rc_lookahead=40 rc=crf mbtree=1 crf=18.0 qcomp=0.60 qpmin=0 qpmax=69 qpstep=4 ip_ratio=1.40 aq=1:1.00\n",
      "Output #0, mp4, to '../../../data/full_videos/sep14/IMG_1091/IMG_1091_swing_4_score_None.mp4':\n",
      "  Metadata:\n",
      "    major_brand     : qt  \n",
      "    minor_version   : 0\n",
      "    compatible_brands: qt  \n",
      "    com.apple.quicktime.creationdate: 2025-09-14T08:55:08-0400\n",
      "    com.apple.quicktime.full-frame-rate-playback-intent: 0\n",
      "    com.apple.quicktime.make: Apple\n",
      "    com.apple.quicktime.model: iPhone 15\n",
      "    com.apple.quicktime.software: 18.6.2\n",
      "    encoder         : Lavf58.76.100\n",
      "  Stream #0:0: Video: h264 (avc1 / 0x31637661), yuv420p(tv, bt709, progressive), 1080x1920, q=2-31, 59.94 fps, 60k tbn (default)\n",
      "    Metadata:\n",
      "      encoder         : Lavc58.134.100 libx264\n",
      "    Side data:\n",
      "      cpb: bitrate max/min/avg: 0/0/0 buffer size: 0 vbv_delay: N/A\n",
      "frame=  180 fps= 13 q=-1.0 Lsize=    4832kB time=00:00:02.95 bitrate=13404.2kbits/s speed=0.221x    \n",
      "video:4829kB audio:0kB subtitle:0kB other streams:0kB global headers:0kB muxing overhead: 0.061844%\n",
      "[libx264 @ 0x59a6decac800] frame I:1     Avg QP:18.09  size:473840\n",
      "[libx264 @ 0x59a6decac800] frame P:55    Avg QP:17.73  size: 73461\n",
      "[libx264 @ 0x59a6decac800] frame B:124   Avg QP:23.47  size:  3466\n",
      "[libx264 @ 0x59a6decac800] consecutive B-frames:  1.1% 17.8% 10.0% 71.1%\n",
      "[libx264 @ 0x59a6decac800] mb I  I16..4: 26.7% 34.7% 38.5%\n",
      "[libx264 @ 0x59a6decac800] mb P  I16..4:  2.3%  1.1%  0.2%  P16..4: 43.4%  8.5%  9.5%  0.0%  0.0%    skip:35.2%\n",
      "[libx264 @ 0x59a6decac800] mb B  I16..4:  0.2%  0.1%  0.0%  B16..8: 19.0%  1.7%  0.5%  direct: 0.9%  skip:77.6%  L0:34.6% L1:59.7% BI: 5.7%\n",
      "[libx264 @ 0x59a6decac800] 8x8 transform intra:31.5% inter:51.2%\n",
      "[libx264 @ 0x59a6decac800] coded y,uvDC,uvAC intra: 25.8% 39.8% 17.7% inter: 12.4% 7.3% 0.9%\n",
      "[libx264 @ 0x59a6decac800] i16 v,h,dc,p:  3% 81%  4% 13%\n",
      "[libx264 @ 0x59a6decac800] i8 v,h,dc,ddl,ddr,vr,hd,vl,hu:  7% 30% 48%  2%  3%  2%  2%  2%  4%\n",
      "[libx264 @ 0x59a6decac800] i4 v,h,dc,ddl,ddr,vr,hd,vl,hu:  9% 17% 18%  8% 11%  9% 10%  8% 11%\n",
      "[libx264 @ 0x59a6decac800] i8c dc,h,v,p: 49% 36%  9%  6%\n",
      "[libx264 @ 0x59a6decac800] Weighted P-Frames: Y:0.0% UV:0.0%\n",
      "[libx264 @ 0x59a6decac800] ref P L0: 80.2%  6.9% 10.7%  2.2%\n",
      "[libx264 @ 0x59a6decac800] ref B L0: 85.7% 12.7%  1.6%\n",
      "[libx264 @ 0x59a6decac800] ref B L1: 97.0%  3.0%\n",
      "[libx264 @ 0x59a6decac800] kb/s:13170.86\n",
      "ffmpeg version 4.4.2-0ubuntu0.22.04.1 Copyright (c) 2000-2021 the FFmpeg developers\n",
      "  built with gcc 11 (Ubuntu 11.2.0-19ubuntu1)\n",
      "  configuration: --prefix=/usr --extra-version=0ubuntu0.22.04.1 --toolchain=hardened --libdir=/usr/lib/x86_64-linux-gnu --incdir=/usr/include/x86_64-linux-gnu --arch=amd64 --enable-gpl --disable-stripping --enable-gnutls --enable-ladspa --enable-libaom --enable-libass --enable-libbluray --enable-libbs2b --enable-libcaca --enable-libcdio --enable-libcodec2 --enable-libdav1d --enable-libflite --enable-libfontconfig --enable-libfreetype --enable-libfribidi --enable-libgme --enable-libgsm --enable-libjack --enable-libmp3lame --enable-libmysofa --enable-libopenjpeg --enable-libopenmpt --enable-libopus --enable-libpulse --enable-librabbitmq --enable-librubberband --enable-libshine --enable-libsnappy --enable-libsoxr --enable-libspeex --enable-libsrt --enable-libssh --enable-libtheora --enable-libtwolame --enable-libvidstab --enable-libvorbis --enable-libvpx --enable-libwebp --enable-libx265 --enable-libxml2 --enable-libxvid --enable-libzimg --enable-libzmq --enable-libzvbi --enable-lv2 --enable-omx --enable-openal --enable-opencl --enable-opengl --enable-sdl2 --enable-pocketsphinx --enable-librsvg --enable-libmfx --enable-libdc1394 --enable-libdrm --enable-libiec61883 --enable-chromaprint --enable-frei0r --enable-libx264 --enable-shared\n",
      "  libavutil      56. 70.100 / 56. 70.100\n",
      "  libavcodec     58.134.100 / 58.134.100\n",
      "  libavformat    58. 76.100 / 58. 76.100\n",
      "  libavdevice    58. 13.100 / 58. 13.100\n",
      "  libavfilter     7.110.100 /  7.110.100\n",
      "  libswscale      5.  9.100 /  5.  9.100\n",
      "  libswresample   3.  9.100 /  3.  9.100\n",
      "  libpostproc    55.  9.100 / 55.  9.100\n",
      "Trailing option(s) found in the command: may be ignored.\n",
      "Input #0, mov,mp4,m4a,3gp,3g2,mj2, from '../../../data/full_videos/sep14/IMG_1091.MOV':\n",
      "  Metadata:\n",
      "    major_brand     : qt  \n",
      "    minor_version   : 0\n",
      "    compatible_brands: qt  \n",
      "    creation_time   : 2025-09-16T16:38:05.000000Z\n",
      "    com.apple.quicktime.full-frame-rate-playback-intent: 0\n",
      "    com.apple.quicktime.make: Apple\n",
      "    com.apple.quicktime.model: iPhone 15\n",
      "    com.apple.quicktime.software: 18.6.2\n",
      "    com.apple.quicktime.creationdate: 2025-09-14T08:55:08-0400\n",
      "  Duration: 00:03:44.65, start: 0.000000, bitrate: 16061 kb/s\n",
      "  Stream #0:0(und): Audio: aac (LC) (mp4a / 0x6134706D), 44100 Hz, stereo, fltp, 167 kb/s (default)\n",
      "    Metadata:\n",
      "      creation_time   : 2025-09-16T16:38:05.000000Z\n",
      "      handler_name    : Core Media Audio\n",
      "      vendor_id       : [0][0][0][0]\n",
      "  Stream #0:1(und): Video: h264 (High) (avc1 / 0x31637661), yuv420p(tv, bt709), 1080x1920, 15787 kb/s, 59.94 fps, 59.94 tbr, 600 tbn, 1200 tbc (default)\n",
      "    Metadata:\n",
      "      creation_time   : 2025-09-16T16:38:05.000000Z\n",
      "      handler_name    : Core Media Video\n",
      "      vendor_id       : [0][0][0][0]\n",
      "      encoder         : H.264\n",
      "  Stream #0:2(und): Data: none (mebx / 0x7862656D) (default)\n",
      "    Metadata:\n",
      "      creation_time   : 2025-09-16T16:38:05.000000Z\n",
      "      handler_name    : Core Media Metadata\n",
      "  Stream #0:3(und): Data: none (mebx / 0x7862656D), 1 kb/s (default)\n",
      "    Metadata:\n",
      "      creation_time   : 2025-09-16T16:38:05.000000Z\n",
      "      handler_name    : Core Media Metadata\n",
      "  Stream #0:4(und): Data: none (mebx / 0x7862656D), 84 kb/s (default)\n",
      "    Metadata:\n",
      "      creation_time   : 2025-09-16T16:38:05.000000Z\n",
      "      handler_name    : Core Media Metadata\n",
      "  Stream #0:5(und): Data: none (mebx / 0x7862656D), 5 kb/s (default)\n",
      "    Metadata:\n",
      "      creation_time   : 2025-09-16T16:38:05.000000Z\n",
      "      handler_name    : Core Media Metadata\n",
      "  Stream #0:6(und): Data: none (mebx / 0x7862656D), 0 kb/s (default)\n",
      "    Metadata:\n",
      "      creation_time   : 2025-09-16T16:38:05.000000Z\n",
      "      handler_name    : Core Media Metadata\n",
      "Stream mapping:\n",
      "  Stream #0:1 (h264) -> trim\n",
      "  setpts -> Stream #0:0 (libx264)\n",
      "Press [q] to stop, [?] for help\n",
      "[libx264 @ 0x64074a492800] using cpu capabilities: MMX2 SSE2Fast SSSE3 SSE4.2 AVX FMA3 BMI2 AVX2\n",
      "[libx264 @ 0x64074a492800] profile High, level 4.2, 4:2:0, 8-bit\n",
      "[libx264 @ 0x64074a492800] 264 - core 163 r3060 5db6aa6 - H.264/MPEG-4 AVC codec - Copyleft 2003-2021 - http://www.videolan.org/x264.html - options: cabac=1 ref=3 deblock=1:0:0 analyse=0x3:0x113 me=hex subme=7 psy=1 psy_rd=1.00:0.00 mixed_ref=1 me_range=16 chroma_me=1 trellis=1 8x8dct=1 cqm=0 deadzone=21,11 fast_pskip=1 chroma_qp_offset=-2 threads=24 lookahead_threads=4 sliced_threads=0 nr=0 decimate=1 interlaced=0 bluray_compat=0 constrained_intra=0 bframes=3 b_pyramid=2 b_adapt=1 b_bias=0 direct=1 weightb=1 open_gop=0 weightp=2 keyint=250 keyint_min=25 scenecut=40 intra_refresh=0 rc_lookahead=40 rc=crf mbtree=1 crf=18.0 qcomp=0.60 qpmin=0 qpmax=69 qpstep=4 ip_ratio=1.40 aq=1:1.00\n",
      "Output #0, mp4, to '../../../data/full_videos/sep14/IMG_1091/IMG_1091_swing_5_score_None.mp4':\n",
      "  Metadata:\n",
      "    major_brand     : qt  \n",
      "    minor_version   : 0\n",
      "    compatible_brands: qt  \n",
      "    com.apple.quicktime.creationdate: 2025-09-14T08:55:08-0400\n",
      "    com.apple.quicktime.full-frame-rate-playback-intent: 0\n",
      "    com.apple.quicktime.make: Apple\n",
      "    com.apple.quicktime.model: iPhone 15\n",
      "    com.apple.quicktime.software: 18.6.2\n",
      "    encoder         : Lavf58.76.100\n",
      "  Stream #0:0: Video: h264 (avc1 / 0x31637661), yuv420p(tv, bt709, progressive), 1080x1920, q=2-31, 59.94 fps, 60k tbn (default)\n",
      "    Metadata:\n",
      "      encoder         : Lavc58.134.100 libx264\n",
      "    Side data:\n",
      "      cpb: bitrate max/min/avg: 0/0/0 buffer size: 0 vbv_delay: N/A\n",
      "frame=  180 fps= 11 q=-1.0 Lsize=    4807kB time=00:00:02.95 bitrate=13335.0kbits/s speed=0.174x     \n",
      "video:4804kB audio:0kB subtitle:0kB other streams:0kB global headers:0kB muxing overhead: 0.062328%\n",
      "[libx264 @ 0x64074a492800] frame I:1     Avg QP:17.36  size:490734\n",
      "[libx264 @ 0x64074a492800] frame P:56    Avg QP:17.93  size: 69922\n",
      "[libx264 @ 0x64074a492800] frame B:123   Avg QP:23.54  size:  4164\n",
      "[libx264 @ 0x64074a492800] consecutive B-frames:  1.7% 18.9%  8.3% 71.1%\n",
      "[libx264 @ 0x64074a492800] mb I  I16..4: 24.6% 28.2% 47.1%\n",
      "[libx264 @ 0x64074a492800] mb P  I16..4:  2.6%  1.5%  0.5%  P16..4: 45.7%  7.5%  8.1%  0.0%  0.0%    skip:34.0%\n",
      "[libx264 @ 0x64074a492800] mb B  I16..4:  0.3%  0.1%  0.0%  B16..8: 20.0%  2.3%  0.5%  direct: 0.7%  skip:76.1%  L0:33.6% L1:60.0% BI: 6.4%\n",
      "[libx264 @ 0x64074a492800] 8x8 transform intra:31.1% inter:52.7%\n",
      "[libx264 @ 0x64074a492800] coded y,uvDC,uvAC intra: 28.1% 42.4% 18.9% inter: 12.5% 7.8% 0.9%\n",
      "[libx264 @ 0x64074a492800] i16 v,h,dc,p:  2% 80%  4% 14%\n",
      "[libx264 @ 0x64074a492800] i8 v,h,dc,ddl,ddr,vr,hd,vl,hu:  7% 32% 49%  1%  2%  1%  2%  2%  4%\n",
      "[libx264 @ 0x64074a492800] i4 v,h,dc,ddl,ddr,vr,hd,vl,hu: 11% 18% 18%  7% 10%  9%  9%  8% 10%\n",
      "[libx264 @ 0x64074a492800] i8c dc,h,v,p: 49% 35% 10%  6%\n",
      "[libx264 @ 0x64074a492800] Weighted P-Frames: Y:0.0% UV:0.0%\n",
      "[libx264 @ 0x64074a492800] ref P L0: 79.0%  7.1% 11.8%  2.1%\n",
      "[libx264 @ 0x64074a492800] ref B L0: 85.7% 12.5%  1.8%\n",
      "[libx264 @ 0x64074a492800] ref B L1: 97.1%  2.9%\n",
      "[libx264 @ 0x64074a492800] kb/s:13102.85\n"
     ]
    },
    {
     "data": {
      "text/html": [
       "<div>\n",
       "<style scoped>\n",
       "    .dataframe tbody tr th:only-of-type {\n",
       "        vertical-align: middle;\n",
       "    }\n",
       "\n",
       "    .dataframe tbody tr th {\n",
       "        vertical-align: top;\n",
       "    }\n",
       "\n",
       "    .dataframe thead th {\n",
       "        text-align: right;\n",
       "    }\n",
       "</style>\n",
       "<table border=\"1\" class=\"dataframe\">\n",
       "  <thead>\n",
       "    <tr style=\"text-align: right;\">\n",
       "      <th></th>\n",
       "      <th>swing_idx</th>\n",
       "      <th>start_idx</th>\n",
       "      <th>end_idx</th>\n",
       "    </tr>\n",
       "  </thead>\n",
       "  <tbody>\n",
       "    <tr>\n",
       "      <th>0</th>\n",
       "      <td>0</td>\n",
       "      <td>405</td>\n",
       "      <td>585</td>\n",
       "    </tr>\n",
       "    <tr>\n",
       "      <th>1</th>\n",
       "      <td>1</td>\n",
       "      <td>2210</td>\n",
       "      <td>2390</td>\n",
       "    </tr>\n",
       "    <tr>\n",
       "      <th>2</th>\n",
       "      <td>2</td>\n",
       "      <td>4151</td>\n",
       "      <td>4331</td>\n",
       "    </tr>\n",
       "    <tr>\n",
       "      <th>3</th>\n",
       "      <td>3</td>\n",
       "      <td>6580</td>\n",
       "      <td>6760</td>\n",
       "    </tr>\n",
       "    <tr>\n",
       "      <th>4</th>\n",
       "      <td>4</td>\n",
       "      <td>8240</td>\n",
       "      <td>8420</td>\n",
       "    </tr>\n",
       "    <tr>\n",
       "      <th>5</th>\n",
       "      <td>5</td>\n",
       "      <td>10762</td>\n",
       "      <td>10942</td>\n",
       "    </tr>\n",
       "  </tbody>\n",
       "</table>\n",
       "</div>"
      ],
      "text/plain": [
       "   swing_idx  start_idx  end_idx\n",
       "0          0        405      585\n",
       "1          1       2210     2390\n",
       "2          2       4151     4331\n",
       "3          3       6580     6760\n",
       "4          4       8240     8420\n",
       "5          5      10762    10942"
      ]
     },
     "execution_count": 4,
     "metadata": {},
     "output_type": "execute_result"
    }
   ],
   "source": [
    "end_to_end_detect(files[6], start_idx=1800)"
   ]
  },
  {
   "cell_type": "code",
   "execution_count": null,
   "id": "e706c1ae-b079-4359-995f-61827babf086",
   "metadata": {},
   "outputs": [],
   "source": [
    "lbl_clips(files[6])"
   ]
  },
  {
   "cell_type": "code",
   "execution_count": 10,
   "id": "58b68573-7e22-48ce-b75a-9c2e4729adc3",
   "metadata": {},
   "outputs": [],
   "source": [
    "#end_to_end_detect(files[2])\n",
    "#end_to_end_detect(files[7])"
   ]
  },
  {
   "cell_type": "code",
   "execution_count": 40,
   "id": "611354d6-5c51-407f-89ec-388bd3484dc7",
   "metadata": {},
   "outputs": [],
   "source": [
    "def lbl_clips(fpath):\n",
    "    fname = fpath.name.split('.')[0]\n",
    "    parent_dir = fpath.parent\n",
    "    clips_folder_path = f'{parent_dir}/{fname}'\n",
    "    clipped_videos = [x.name for x in get_files(clips_folder_path, extensions='.mp4') if x.name[:3] == 'IMG']\n",
    "    for video in clipped_videos:\n",
    "        clip_video_path = f'{clips_folder_path}/{video}'\n",
    "        process_label_video(clip_video_path, \n",
    "                    out_dir=f'{clips_folder_path}/keypoints')"
   ]
  },
  {
   "cell_type": "code",
   "execution_count": 43,
   "id": "018242bb-fa8d-4867-9a1b-4fe2f6c81b04",
   "metadata": {},
   "outputs": [],
   "source": [
    "#[lbl_clips(fpath) for fpath in files]"
   ]
  },
  {
   "cell_type": "code",
   "execution_count": 44,
   "id": "60e9c117-e191-470c-8e70-8e8968bdf777",
   "metadata": {},
   "outputs": [
    {
     "data": {
      "text/plain": [
       "(#8) [Path('../../../data/full_videos/sep14/IMG_1090.MOV'),Path('../../../data/full_videos/sep14/IMG_1087.MOV'),Path('../../../data/full_videos/sep14/IMG_1088.MOV'),Path('../../../data/full_videos/sep14/IMG_1092.MOV'),Path('../../../data/full_videos/sep14/IMG_1086.MOV'),Path('../../../data/full_videos/sep14/IMG_1093.MOV'),Path('../../../data/full_videos/sep14/IMG_1091.MOV'),Path('../../../data/full_videos/sep14/IMG_1089.MOV')]"
      ]
     },
     "execution_count": 44,
     "metadata": {},
     "output_type": "execute_result"
    }
   ],
   "source": [
    "files"
   ]
  },
  {
   "cell_type": "code",
   "execution_count": null,
   "id": "611a7675-6a1e-446b-b999-2d145cdc1439",
   "metadata": {},
   "outputs": [],
   "source": []
  }
 ],
 "metadata": {
  "kernelspec": {
   "display_name": "Python 3 (ipykernel)",
   "language": "python",
   "name": "python3"
  },
  "language_info": {
   "codemirror_mode": {
    "name": "ipython",
    "version": 3
   },
   "file_extension": ".py",
   "mimetype": "text/x-python",
   "name": "python",
   "nbconvert_exporter": "python",
   "pygments_lexer": "ipython3",
   "version": "3.10.11"
  }
 },
 "nbformat": 4,
 "nbformat_minor": 5
}
